<svg width="40" height="40" viewBox="0 0 40 40" fill="none" xmlns="http://www.w3.org/2000/svg">
<path d="M10.75 26.9767C10.65 26.8527 10.975 26.3643 11.725 25.5116C12.475 24.6589 13.3333 23.7519 14.3 22.7907C15.4 21.6434 16.6833 20.3721 18.15 18.9767C18.55 18.4186 19.1 18.1395 19.8 18.1395C20.5 18.1395 21.0833 18.3876 21.55 18.8837C21.95 19.3798 22.1 19.9457 22 20.5814C21.9 21.2171 21.5333 21.6744 20.9 21.9535C19.0667 22.9767 17.4333 23.876 16 24.6512C14.7333 25.3023 13.5667 25.8837 12.5 26.3953C11.4333 26.907 10.85 27.1008 10.75 26.9767ZM17.5 40C17.3333 40 17.1667 39.969 17 39.907C16.8333 39.845 16.7 39.7364 16.6 39.5814C16.4667 39.3953 16.3333 39.1395 16.2 38.814C16.0667 38.4884 16 38.1085 16 37.6744C16 37.3953 16.0167 37.1395 16.05 36.907C16.0833 36.6744 16.1333 36.4341 16.2 36.186C15.3 36.031 14.5417 35.6124 13.925 34.9302C13.3083 34.2481 13 33.4574 13 32.5581C13 32.4341 13.05 32.1085 13.15 31.5814C10.6833 30.7752 8.69167 29.4884 7.175 27.7209C5.65833 25.9535 4.68333 23.6744 4.25 20.8837C4.08333 21.0388 3.9 21.1628 3.7 21.2558C3.5 21.3488 3.26667 21.3953 3 21.3953C2.5 21.3953 1.875 21.0465 1.125 20.3488C0.375 19.6512 0 18.1395 0 15.814C0 13.6744 0.675 11.7442 2.025 10.0233C3.375 8.30233 4.7 7.44186 6 7.44186C6.43333 7.44186 6.70833 7.62016 6.825 7.97674C6.94167 8.33333 7 8.68217 7 9.02326C8.26667 7.34884 9.85833 5.96899 11.775 4.88372C13.6917 3.79845 15.8 3.13178 18.1 2.88372C18.3 1.9845 18.7833 1.27907 19.55 0.767442C20.3167 0.255814 21.1333 0 22 0V1.86047C22.1333 1.67442 22.3 1.51938 22.5 1.39535C22.6667 1.27132 22.875 1.16279 23.125 1.06977C23.375 0.976744 23.6667 0.930233 24 0.930233C24.3333 0.930233 24.625 0.976744 24.875 1.06977C25.125 1.16279 25.3333 1.27132 25.5 1.39535C25.7 1.51938 25.8667 1.67442 26 1.86047C25.5 1.86047 25.0833 2 24.75 2.27907C24.4167 2.55814 24.2 2.89923 24.1 3.30233C25.9 3.73643 27.5667 4.44961 29.1 5.44186C30.6333 6.43411 31.9333 7.62791 33 9.02326C33 8.68217 33.0583 8.33333 33.175 7.97674C33.2917 7.62016 33.5667 7.44186 34 7.44186C35.3 7.44186 36.625 8.30233 37.975 10.0233C39.325 11.7442 40 13.6744 40 15.814C40 18.1395 39.625 19.6512 38.875 20.3488C38.125 21.0465 37.5 21.3953 37 21.3953C36.7667 21.3953 36.5417 21.3566 36.325 21.2791C36.1083 21.2016 35.9167 21.0853 35.75 20.9302C35.2833 24.031 34.1417 26.5039 32.325 28.3488C30.5083 30.1938 28.1 31.4264 25.1 32.0465C25.2 32.4806 25.425 32.8295 25.775 33.093C26.125 33.3566 26.5333 33.4884 27 33.4884H28.15C28.3833 33.4884 28.5833 33.5504 28.75 33.6744C28.9167 33.7985 29.0333 33.9535 29.1 34.1395C29.2667 34.6357 29.5583 35.1008 29.975 35.5349C30.3917 35.969 30.7833 36.3256 31.15 36.6047C31.4167 36.8217 31.5417 37.0775 31.525 37.3721C31.5083 37.6667 31.3667 37.8915 31.1 38.0465C30.7333 38.2946 30.2667 38.5116 29.7 38.6977C29.1333 38.8837 28.4 39.0078 27.5 39.0698C27.3333 39.0698 27.1667 39.0388 27 38.9767C26.8333 38.9147 26.7 38.8062 26.6 38.6512C26.4667 38.4651 26.3333 38.2093 26.2 37.8837C26.0667 37.5581 26 37.1783 26 36.7442C26 36.4651 26.0167 36.2093 26.05 35.9767C26.0833 35.7442 26.1333 35.5039 26.2 35.2558C25.4 35.1008 24.725 34.7597 24.175 34.2326C23.625 33.7054 23.2667 33.0853 23.1 32.3721C22.6 32.4341 22.1 32.4806 21.6 32.5116C21.1 32.5426 20.5667 32.5581 20 32.5581C19.1333 32.5581 18.2917 32.5194 17.475 32.4419C16.6583 32.3643 15.8667 32.2481 15.1 32.093L15 32.5581C15 33.0853 15.1917 33.5271 15.575 33.8837C15.9583 34.2403 16.4333 34.4186 17 34.4186H18.15C18.3833 34.4186 18.5833 34.4806 18.75 34.6047C18.9167 34.7287 19.0333 34.8837 19.1 35.0698C19.2667 35.5659 19.5583 36.031 19.975 36.4651C20.3917 36.8992 20.7833 37.2558 21.15 37.5349C21.4167 37.7519 21.5417 38.0078 21.525 38.3023C21.5083 38.5969 21.3667 38.8217 21.1 38.9767C20.7333 39.2248 20.2667 39.4419 19.7 39.6279C19.1333 39.814 18.4 39.938 17.5 40V40ZM33.5 21.814C33.6667 21.1938 33.7917 20.5426 33.875 19.8605C33.9583 19.1783 34 18.4496 34 17.6744C34 14.0775 32.6333 11.0078 29.9 8.46512C27.1667 5.92248 23.8667 4.65116 20 4.65116C16.1333 4.65116 12.8333 5.92248 10.1 8.46512C7.36667 11.0078 6 14.0775 6 17.6744C6 18.4186 6.04167 19.1318 6.125 19.814C6.20833 20.4961 6.33333 21.1473 6.5 21.7674C6.66667 21.1473 6.89167 20.5349 7.175 19.9302C7.45833 19.3256 7.78333 18.7597 8.15 18.2326C7.95 17.7985 7.79167 17.3411 7.675 16.8605C7.55833 16.3798 7.5 15.876 7.5 15.3488C7.5 13.3953 8.225 11.7442 9.675 10.3953C11.125 9.04651 12.9 8.37209 15 8.37209C15.9667 8.37209 16.875 8.53488 17.725 8.86047C18.575 9.18605 19.3333 9.62791 20 10.186C20.6667 9.62791 21.425 9.18605 22.275 8.86047C23.125 8.53488 24.0333 8.37209 25 8.37209C27.1 8.37209 28.875 9.04651 30.325 10.3953C31.775 11.7442 32.5 13.3953 32.5 15.3488C32.5 15.876 32.4417 16.3798 32.325 16.8605C32.2083 17.3411 32.0333 17.7985 31.8 18.2326C32.1667 18.7597 32.5 19.3256 32.8 19.9302C33.1 20.5349 33.3333 21.1628 33.5 21.814ZM20 30.6977C22.9 30.6977 25.3417 30.2791 27.325 29.4419C29.3083 28.6047 30.85 27.3488 31.95 25.6744C31.95 25.5814 31.9583 25.4884 31.975 25.3953C31.9917 25.3023 32 25.2093 32 25.1163C32 24.186 31.8833 23.2868 31.65 22.4186C31.4167 21.5504 31.0667 20.7287 30.6 19.9535C29.9 20.6667 29.075 21.2403 28.125 21.6744C27.175 22.1085 26.1333 22.3256 25 22.3256C24.7333 22.3256 24.4667 22.3101 24.2 22.2791C23.9333 22.2481 23.6667 22.2016 23.4 22.1395C23.5667 21.9225 23.6917 21.6977 23.775 21.4651C23.8583 21.2326 23.9167 20.9922 23.95 20.7442C23.9833 20.6822 24 20.6202 24 20.5581V20.3721C24.1667 20.4031 24.3333 20.4264 24.5 20.4419C24.6667 20.4574 24.8333 20.4651 25 20.4651C26.5333 20.4651 27.8333 19.969 28.9 18.9767C29.9667 17.9845 30.5 16.7752 30.5 15.3488C30.5 13.9225 29.9667 12.7132 28.9 11.7209C27.8333 10.7287 26.5333 10.2326 25 10.2326C24.3333 10.2326 23.6833 10.3488 23.05 10.5814C22.4167 10.814 21.85 11.1473 21.35 11.5814L20 12.6977L18.65 11.5814C18.15 11.1473 17.5833 10.814 16.95 10.5814C16.3167 10.3488 15.6667 10.2326 15 10.2326C13.4667 10.2326 12.1667 10.7287 11.1 11.7209C10.0333 12.7132 9.5 13.9225 9.5 15.3488C9.5 16.6202 9.925 17.7132 10.775 18.6279C11.625 19.5426 12.6833 20.124 13.95 20.3721L12.45 21.907C11.85 21.6899 11.2917 21.4186 10.775 21.093C10.2583 20.7674 9.8 20.3876 9.4 19.9535C8.93333 20.7287 8.58333 21.5504 8.35 22.4186C8.11667 23.2868 8 24.186 8 25.1163V25.5814C9.13333 27.2558 10.7 28.5271 12.7 29.3953C14.7 30.2636 17.1333 30.6977 20 30.6977ZM25 18.6047C24.1667 18.6047 23.4583 18.2868 22.875 17.6512C22.2917 17.0155 22 16.2481 22 15.3488C22 14.4496 22.2917 13.6822 22.875 13.0465C23.4583 12.4109 24.1667 12.093 25 12.093C25.8333 12.093 26.5417 12.4109 27.125 13.0465C27.7083 13.6822 28 14.4496 28 15.3488C28 16.2481 27.7083 17.0155 27.125 17.6512C26.5417 18.2868 25.8333 18.6047 25 18.6047ZM25.75 14.4186C25.9833 14.4186 26.1667 14.3488 26.3 14.2093C26.4333 14.0698 26.5 13.907 26.5 13.7209C26.5 13.5349 26.425 13.3721 26.275 13.2326C26.125 13.093 25.95 13.0233 25.75 13.0233C25.5167 13.0233 25.3333 13.093 25.2 13.2326C25.0667 13.3721 25 13.5349 25 13.7209C25 13.938 25.075 14.1085 25.225 14.2326C25.375 14.3566 25.55 14.4186 25.75 14.4186ZM15 18.6047C14.1667 18.6047 13.4583 18.2868 12.875 17.6512C12.2917 17.0155 12 16.2481 12 15.3488C12 14.4496 12.2917 13.6822 12.875 13.0465C13.4583 12.4109 14.1667 12.093 15 12.093C15.8333 12.093 16.5417 12.4109 17.125 13.0465C17.7083 13.6822 18 14.4496 18 15.3488C18 16.2481 17.7083 17.0155 17.125 17.6512C16.5417 18.2868 15.8333 18.6047 15 18.6047ZM15.75 14.4186C15.9833 14.4186 16.1667 14.3488 16.3 14.2093C16.4333 14.0698 16.5 13.907 16.5 13.7209C16.5 13.5349 16.425 13.3721 16.275 13.2326C16.125 13.093 15.95 13.0233 15.75 13.0233C15.5167 13.0233 15.3333 13.093 15.2 13.2326C15.0667 13.3721 15 13.5349 15 13.7209C15 13.938 15.075 14.1085 15.225 14.2326C15.375 14.3566 15.55 14.4186 15.75 14.4186Z" fill="#F5F5F5"/>
</svg>
