<svg width="50" height="50" viewBox="0 0 50 50" fill="none" xmlns="http://www.w3.org/2000/svg">
<path d="M3.75 50C2.75 50 1.875 49.5312 1.125 48.5937C0.375 47.6562 0 46.5625 0 45.3125V4.6875C0 3.4375 0.375 2.34375 1.125 1.40625C1.875 0.468749 2.75 0 3.75 0H46.25C47.25 0 48.125 0.468749 48.875 1.40625C49.625 2.34375 50 3.4375 50 4.6875V45.3125C50 46.5625 49.625 47.6562 48.875 48.5937C48.125 49.5312 47.25 50 46.25 50H3.75ZM25 26.4062L3.75 8.98438V45.3125H46.25V8.98438L25 26.4062ZM25 21.7188L46 4.6875H4.0625L25 21.7188ZM3.75 8.98438V4.6875V45.3125V8.98438Z" fill="#F5F5F5"/>
</svg>
