<svg width="50" height="50" viewBox="0 0 50 50" fill="none" xmlns="http://www.w3.org/2000/svg">
<path d="M41.6382 16.2316L39.1923 10.5562L33.2765 7.94552L39.1923 5.3916L41.6382 0L44.0842 5.3916L50 7.94552L44.0842 10.5562L41.6382 16.2316ZM41.6382 50L39.1923 44.5516L33.2765 41.9977L39.1923 39.4438L41.6382 33.7117L44.0842 39.4438L50 41.9977L44.0842 44.5516L41.6382 50ZM16.6667 41.2599L11.4334 30.0795L0 24.9716L11.4334 19.8638L16.6667 8.74007L21.9568 19.8638L33.3333 24.9716L21.9568 30.0795L16.6667 41.2599ZM16.6667 32.8604L19.397 27.412L24.9716 24.9716L19.397 22.5312L16.6667 17.0829L13.9932 22.5312L8.36178 24.9716L13.9932 27.412L16.6667 32.8604Z" fill="#F5F5F5"/>
</svg>
