<svg width="50" height="50" viewBox="0 0 50 50" fill="none" xmlns="http://www.w3.org/2000/svg">
<path d="M4.09277 45.9072H7.09413L37.3124 15.6889L34.311 12.6876L4.09277 42.9059V45.9072ZM45.9754 12.7558L37.2442 4.02456L40.1091 1.15962C40.8822 0.386539 41.8372 0 42.9741 0C44.111 0 45.0659 0.386539 45.839 1.15962L48.8404 4.16098C49.6135 4.93406 50 5.88904 50 7.02592C50 8.1628 49.6135 9.11778 48.8404 9.89086L45.9754 12.7558ZM43.1105 15.6207L8.73124 50H0V41.2688L34.3793 6.88949L43.1105 15.6207ZM35.8117 14.1883L34.311 12.6876L37.3124 15.6889L35.8117 14.1883Z" fill="#F5F5F5"/>
</svg>
