<svg width="40" height="40" viewBox="0 0 40 40" fill="none" xmlns="http://www.w3.org/2000/svg">
<path d="M20 31.8889C22.4 31.8889 24.4167 30.9815 26.05 29.1667C27.6833 27.3519 28.5 25.0926 28.5 22.3889C28.5 19.7222 27.6833 17.4907 26.05 15.6944C24.4167 13.8981 22.4 13 20 13C17.5667 13 15.5417 13.8981 13.925 15.6944C12.3083 17.4907 11.5 19.7222 11.5 22.3889C11.5 25.0926 12.3083 27.3519 13.925 29.1667C15.5417 30.9815 17.5667 31.8889 20 31.8889ZM20 28.5556C18.4 28.5556 17.0833 27.9722 16.05 26.8056C15.0167 25.6389 14.5 24.1667 14.5 22.3889C14.5 20.6481 15.0167 19.2037 16.05 18.0556C17.0833 16.9074 18.4 16.3333 20 16.3333C21.5667 16.3333 22.875 16.9074 23.925 18.0556C24.975 19.2037 25.5 20.6481 25.5 22.3889C25.5 24.1667 24.975 25.6389 23.925 26.8056C22.875 27.9722 21.5667 28.5556 20 28.5556V28.5556ZM3 40C2.2 40 1.5 39.6667 0.9 39C0.3 38.3333 0 37.5556 0 36.6667V8.16667C0 7.31482 0.3 6.5463 0.9 5.86111C1.5 5.17593 2.2 4.83333 3 4.83333H10.35L14 0H26L29.65 4.83333H37C37.7667 4.83333 38.4583 5.17593 39.075 5.86111C39.6917 6.5463 40 7.31482 40 8.16667V36.6667C40 37.5556 39.6917 38.3333 39.075 39C38.4583 39.6667 37.7667 40 37 40H3ZM37 36.6667V8.16667H28.25L24.6 3.33333H15.4L11.75 8.16667H3V36.6667H37Z" fill="#F5F5F5"/>
</svg>
